<svg width="24" height="20" viewBox="0 0 24 20" fill="none" xmlns="http://www.w3.org/2000/svg">
<g clip-path="url(#clip0_44_810)">
<path d="M23.5566 20.0008V20H23.5624V12.665C23.5624 9.07667 22.6649 6.3125 17.7906 6.3125C15.4474 6.3125 13.875 7.41917 13.233 8.46833H13.1652V6.6475H8.5437V20H13.356V13.3883C13.356 11.6475 13.7394 9.96417 16.2443 9.96417C18.7124 9.96417 18.7492 11.9508 18.7492 13.5V20.0008H23.5566Z" fill="#060468"/>
<path d="M0.70752 6.64844H5.5256V20.0009H0.70752V6.64844Z" fill="#060468"/>
<path d="M3.11451 0C1.574 0 0.323975 1.07583 0.323975 2.40167C0.323975 3.7275 1.574 4.82583 3.11451 4.82583C4.65502 4.82583 5.90505 3.7275 5.90505 2.40167C5.90408 1.07583 4.65405 0 3.11451 0V0Z" fill="#060468"/>
</g>
<defs>
<clipPath id="clip0_44_810">
<rect width="23.2383" height="20" fill="white" transform="translate(0.323975)"/>
</clipPath>
</defs>
</svg>
