<svg width="25" height="20" viewBox="0 0 25 20" fill="none" xmlns="http://www.w3.org/2000/svg">
<g clip-path="url(#clip0_44_814)">
<path d="M21.802 5.9275C22.747 5.35 23.542 4.62917 24.1898 3.79917V3.79833C23.3251 4.12417 22.4053 4.34083 21.4447 4.44583C22.4324 3.93833 23.1866 3.14083 23.541 2.18C22.6202 2.6525 21.6035 2.98583 20.52 3.1725C19.6457 2.37083 18.3995 1.875 17.0401 1.875C14.4025 1.875 12.2791 3.7175 12.2791 5.97583C12.2791 6.30083 12.3111 6.61333 12.3895 6.91083C8.42932 6.74417 4.9242 5.11083 2.56939 2.62167C2.15884 3.23583 1.91678 3.93833 1.91678 4.69417C1.91678 6.11417 2.76594 7.3725 4.0334 8.10167C3.2675 8.08917 2.5171 7.8975 1.88095 7.59667V7.64167C1.88095 9.63417 3.53184 11.2892 5.69785 11.6708C5.30957 11.7625 4.88741 11.8058 4.44879 11.8058C4.14378 11.8058 3.83588 11.7908 3.54733 11.7358C4.16412 13.3592 5.91668 14.5533 7.99844 14.5925C6.37757 15.6833 4.31904 16.3408 2.09106 16.3408C1.70085 16.3408 1.32613 16.3258 0.951416 16.285C3.06223 17.4558 5.56229 18.125 8.25988 18.125C16.6673 18.125 22.1467 12.0883 21.802 5.9275Z" fill="#060468"/>
</g>
<defs>
<clipPath id="clip0_44_814">
<rect width="23.2383" height="20" fill="white" transform="translate(0.951416)"/>
</clipPath>
</defs>
</svg>
