<svg width="24" height="20" viewBox="0 0 24 20" fill="none" xmlns="http://www.w3.org/2000/svg">
<g clip-path="url(#clip0_44_816)">
<path d="M10.5608 14.0984C10.6227 14.0534 10.6857 14.0067 10.7438 13.9576C7.5088 16.6892 2.2337 15.4142 0.997222 11.5617V11.5559C-0.661415 6.31422 6.33236 2.33256 10.7418 5.99922C10.8338 6.08339 16.9252 11.6742 16.5379 11.3184H16.5553C17.4645 12.1251 18.7794 12.0367 19.5618 11.3317C20.4032 10.5751 20.4332 9.34006 19.6073 8.57089C18.303 7.27839 15.742 8.24422 15.9869 10.1601L14.521 8.87506L12.8207 7.47589C13.1712 6.87672 13.6311 6.35256 14.2073 5.89922C14.1453 5.94506 14.0823 5.99256 14.0243 6.04006C17.2718 3.29839 22.543 4.60339 23.7708 8.43922V8.44422C25.4333 13.6851 18.4318 17.6667 14.0262 14.0001C13.9361 13.9167 7.84866 8.29089 8.23403 8.64756L8.23016 8.63506C8.21466 8.63506 8.21466 8.62256 8.21466 8.62256C7.25996 7.77506 5.96539 7.90256 5.2082 8.59672C4.36581 9.35339 4.33677 10.5884 5.16463 11.3459C6.41176 12.6084 9.02801 11.6726 8.78207 9.71839C8.87696 9.80256 12.1603 12.7034 11.9512 12.5192C11.4196 13.4317 10.8251 13.8509 10.5608 14.0984Z" fill="#060468"/>
</g>
<defs>
<clipPath id="clip0_44_816">
<rect width="23.2383" height="20" fill="white" transform="translate(0.765137)"/>
</clipPath>
</defs>
</svg>
