<svg width="20" height="21" viewBox="0 0 20 21" fill="none" xmlns="http://www.w3.org/2000/svg">
<g clip-path="url(#clip0_44_1054)">
<path d="M10.0826 19.4092C7.80071 19.4092 5.61233 18.5027 3.99882 16.8892C2.38531 15.2757 1.47886 13.0873 1.47886 10.8055C1.47886 8.52361 2.38531 6.33523 3.99882 4.72172C5.61233 3.10821 7.80071 2.20176 10.0826 2.20176C12.3644 2.20176 14.5528 3.10821 16.1663 4.72172C17.7798 6.33523 18.6863 8.52361 18.6863 10.8055C18.6863 13.0873 17.7798 15.2757 16.1663 16.8892C14.5528 18.5027 12.3644 19.4092 10.0826 19.4092ZM10.0826 20.6383C12.6904 20.6383 15.1914 19.6023 17.0354 17.7583C18.8794 15.9143 19.9154 13.4133 19.9154 10.8055C19.9154 8.19764 18.8794 5.69662 17.0354 3.85262C15.1914 2.00861 12.6904 0.972656 10.0826 0.972656C7.47473 0.972656 4.97372 2.00861 3.12972 3.85262C1.28571 5.69662 0.249756 8.19764 0.249756 10.8055C0.249756 13.4133 1.28571 15.9143 3.12972 17.7583C4.97372 19.6023 7.47473 20.6383 10.0826 20.6383Z" fill="black"/>
<path d="M11.2257 9.06987L8.41103 9.42263L8.31024 9.88968L8.86334 9.9917C9.22469 10.0777 9.29598 10.208 9.21732 10.5681L8.31024 14.8307C8.0718 15.9332 8.4393 16.4518 9.30336 16.4518C9.97322 16.4518 10.7512 16.1421 11.104 15.7168L11.2121 15.2055C10.9663 15.4219 10.6074 15.5079 10.369 15.5079C10.031 15.5079 9.90807 15.2707 9.99534 14.8528L11.2257 9.06987ZM11.3117 6.50351C11.3117 6.82949 11.1822 7.14212 10.9517 7.37262C10.7212 7.60312 10.4086 7.73261 10.0826 7.73261C9.75663 7.73261 9.444 7.60312 9.2135 7.37262C8.983 7.14212 8.8535 6.82949 8.8535 6.50351C8.8535 6.17754 8.983 5.86491 9.2135 5.63441C9.444 5.40391 9.75663 5.27441 10.0826 5.27441C10.4086 5.27441 10.7212 5.40391 10.9517 5.63441C11.1822 5.86491 11.3117 6.17754 11.3117 6.50351Z" fill="black"/>
</g>
<defs>
<clipPath id="clip0_44_1054">
<rect width="19.6656" height="19.6656" fill="white" transform="translate(0.249756 0.972656)"/>
</clipPath>
</defs>
</svg>
