<svg width="20" height="21" viewBox="0 0 20 21" fill="none" xmlns="http://www.w3.org/2000/svg">
<g clip-path="url(#clip0_44_1058)">
<path d="M10.0826 19.4238C7.80071 19.4238 5.61233 18.5173 3.99882 16.9038C2.38531 15.2903 1.47886 13.1019 1.47886 10.8201C1.47886 8.53826 2.38531 6.34988 3.99882 4.73637C5.61233 3.12286 7.80071 2.2164 10.0826 2.2164C12.3644 2.2164 14.5528 3.12286 16.1663 4.73637C17.7798 6.34988 18.6863 8.53826 18.6863 10.8201C18.6863 13.1019 17.7798 15.2903 16.1663 16.9038C14.5528 18.5173 12.3644 19.4238 10.0826 19.4238ZM10.0826 20.6529C12.6904 20.6529 15.1914 19.617 17.0354 17.7729C18.8794 15.9289 19.9154 13.4279 19.9154 10.8201C19.9154 8.21228 18.8794 5.71127 17.0354 3.86727C15.1914 2.02326 12.6904 0.987305 10.0826 0.987305C7.47473 0.987305 4.97372 2.02326 3.12972 3.86727C1.28571 5.71127 0.249756 8.21228 0.249756 10.8201C0.249756 13.4279 1.28571 15.9289 3.12972 17.7729C4.97372 19.617 7.47473 20.6529 10.0826 20.6529Z" fill="black"/>
<path d="M11.2257 9.08452L8.41103 9.43727L8.31024 9.90433L8.86334 10.0063C9.22469 10.0924 9.29598 10.2227 9.21732 10.5828L8.31024 14.8453C8.0718 15.9478 8.4393 16.4665 9.30336 16.4665C9.97322 16.4665 10.7512 16.1568 11.104 15.7315L11.2121 15.2202C10.9663 15.4365 10.6074 15.5225 10.369 15.5225C10.031 15.5225 9.90807 15.2853 9.99534 14.8674L11.2257 9.08452ZM11.3117 6.51816C11.3117 6.84414 11.1822 7.15677 10.9517 7.38727C10.7212 7.61777 10.4086 7.74726 10.0826 7.74726C9.75663 7.74726 9.444 7.61777 9.2135 7.38727C8.983 7.15677 8.8535 6.84414 8.8535 6.51816C8.8535 6.19218 8.983 5.87956 9.2135 5.64906C9.444 5.41856 9.75663 5.28906 10.0826 5.28906C10.4086 5.28906 10.7212 5.41856 10.9517 5.64906C11.1822 5.87956 11.3117 6.19218 11.3117 6.51816Z" fill="black"/>
</g>
<defs>
<clipPath id="clip0_44_1058">
<rect width="19.6656" height="19.6656" fill="white" transform="translate(0.249756 0.987305)"/>
</clipPath>
</defs>
</svg>
