<svg width="22" height="21" viewBox="0 0 22 21" fill="none" xmlns="http://www.w3.org/2000/svg">
<path d="M17.0754 16.63C16.7367 16.9711 16.1852 16.9718 15.8456 16.6317L10.9434 11.7218L6.04099 16.6319C5.70113 16.9723 5.1496 16.9725 4.80948 16.6324C4.46935 16.2923 4.46957 15.7407 4.80996 15.4009L9.72009 10.4985L4.80996 5.59604C4.46957 5.25618 4.46935 4.70466 4.80948 4.36453C5.1496 4.0244 5.70113 4.02462 6.04099 4.36502L10.9434 9.27515L15.8497 4.36887C16.1875 4.03106 16.7352 4.03106 17.073 4.36887C17.4108 4.70668 17.4108 5.25438 17.073 5.59219L12.1667 10.4985L17.0732 15.405C17.4113 15.743 17.4122 16.2908 17.0754 16.63Z" fill="black"/>
</svg>
