<svg width="10" height="18" viewBox="0 0 10 18" fill="none" xmlns="http://www.w3.org/2000/svg">
<path d="M9.0752 1.04945C8.90866 0.889374 8.7255 0.787576 8.53617 0.749876C8.34685 0.712177 8.15508 0.739317 7.97183 0.829743C7.78859 0.92017 7.61746 1.07211 7.46823 1.27687C7.319 1.48164 7.1946 1.73521 7.10214 2.02309L4.40879 10.3961L2.86734 7.73333C2.73351 7.49397 2.57343 7.30305 2.39643 7.1717C2.21943 7.04036 2.02906 6.97122 1.83643 6.96833C1.64379 6.96544 1.45276 7.02885 1.27446 7.15486C1.09617 7.28087 0.934185 7.46696 0.797968 7.70227C0.661751 7.93758 0.554027 8.21739 0.481081 8.52539C0.408135 8.83338 0.371428 9.16339 0.373102 9.49616C0.374776 9.82892 0.414797 10.1578 0.49083 10.4635C0.566864 10.7693 0.677387 11.0458 0.81595 11.277L3.71749 16.2893C3.99169 16.7642 4.36164 17.0249 4.74319 17.0249L4.94412 16.9998C5.16649 16.9461 5.3786 16.8039 5.56376 16.5845C5.74892 16.3651 5.90207 16.0745 6.01116 15.7354L9.63809 4.4578C9.73069 4.17016 9.78959 3.85383 9.81141 3.52687C9.83324 3.19991 9.81757 2.86873 9.7653 2.55223C9.71303 2.23573 9.62518 1.94012 9.50677 1.68227C9.38836 1.42442 9.24171 1.20939 9.0752 1.04945Z" fill="white"/>
</svg>
