<svg width="11" height="19" viewBox="0 0 11 19" fill="none" xmlns="http://www.w3.org/2000/svg">
<path d="M10.0943 0.45215C9.91115 0.276066 9.70967 0.164087 9.50141 0.122618C9.29316 0.0811487 9.08221 0.111002 8.88064 0.210472C8.67907 0.309941 8.49082 0.477075 8.32667 0.702315C8.16252 0.927555 8.02568 1.20648 7.92398 1.52315L4.96129 10.7335L3.2657 7.80442C3.11848 7.54112 2.94239 7.33111 2.74769 7.18663C2.55299 7.04215 2.34358 6.9661 2.13169 6.96292C1.91979 6.95974 1.70965 7.02949 1.51353 7.1681C1.3174 7.30671 1.13922 7.51141 0.989386 7.77025C0.839548 8.02909 0.721051 8.33689 0.64081 8.67568C0.560569 9.01448 0.520192 9.37749 0.522033 9.74353C0.523874 10.1096 0.567898 10.4713 0.651535 10.8076C0.735171 11.144 0.856747 11.4482 1.00917 11.7025L4.20087 17.216C4.50248 17.7384 4.90942 18.0251 5.32913 18.0251L5.55016 17.9975C5.79476 17.9384 6.02808 17.782 6.23176 17.5407C6.43543 17.2994 6.6039 16.9797 6.7239 16.6067L10.7135 4.20134C10.8154 3.88493 10.8802 3.53697 10.9042 3.17731C10.9282 2.81766 10.9109 2.45336 10.8534 2.10521C10.796 1.75706 10.6993 1.43189 10.5691 1.14825C10.4388 0.864619 10.2775 0.628083 10.0943 0.45215Z" fill="#FBFBFB"/>
</svg>
