<svg width="11" height="17" viewBox="0 0 11 17" fill="none" xmlns="http://www.w3.org/2000/svg">
<path d="M9.62207 0.420545C9.45554 0.260468 9.27237 0.158669 9.08305 0.12097C8.89373 0.0832709 8.70196 0.11041 8.51871 0.200837C8.33546 0.291264 8.16433 0.443204 8.0151 0.647968C7.86587 0.852731 7.74148 1.1063 7.64902 1.39418L4.95566 9.7672L3.41422 7.10443C3.28039 6.86506 3.1203 6.67414 2.9433 6.5428C2.7663 6.41145 2.57593 6.34232 2.3833 6.33942C2.19067 6.33653 1.99963 6.39994 1.82134 6.52595C1.64304 6.65197 1.48106 6.83805 1.34484 7.07336C1.20863 7.30867 1.1009 7.58849 1.02796 7.89648C0.95501 8.20448 0.918303 8.53449 0.919977 8.86725C0.921651 9.20001 0.961672 9.52887 1.03771 9.83463C1.11374 10.1404 1.22426 10.4169 1.36283 10.6481L4.26437 15.6604C4.53857 16.1353 4.90851 16.3959 5.29006 16.3959L5.491 16.3709C5.71336 16.3172 5.92548 16.175 6.11064 15.9556C6.2958 15.7362 6.44895 15.4456 6.55804 15.1065L10.185 3.8289C10.2776 3.54126 10.3365 3.22493 10.3583 2.89797C10.3801 2.57101 10.3644 2.23982 10.3122 1.92332C10.2599 1.60683 10.1721 1.31121 10.0536 1.05336C9.93524 0.795517 9.78859 0.580484 9.62207 0.420545Z" fill="white"/>
</svg>
