<svg width="20" height="20" viewBox="0 0 20 20" fill="none" xmlns="http://www.w3.org/2000/svg">
<g clip-path="url(#clip0_63_460)">
<path d="M19.999 10.6207C19.9838 10.1323 19.7776 9.66929 19.4245 9.33136L12.1707 2.26484C12.0619 2.1563 11.9327 2.07031 11.7906 2.01178C11.6485 1.95326 11.4963 1.92336 11.3426 1.92379H10.048L18.554 10.2285L18.5576 10.2319C18.6762 10.3443 18.7457 10.4989 18.7511 10.6622C18.7565 10.8255 18.6974 10.9844 18.5865 11.1044L12.4772 17.8761L13.3347 18.7103L19.5097 11.9473C19.8405 11.5864 20.0163 11.11 19.999 10.6207V10.6207Z" fill="black" fill-opacity="0.26"/>
<path d="M16.6758 11.061C16.7354 10.8969 16.7479 10.7193 16.7118 10.5485C16.6756 10.3777 16.5924 10.2204 16.4714 10.0945C16.4673 10.0902 16.4636 10.0855 16.4595 10.0812L8.76199 2.25453L8.75832 2.25086C8.64252 2.13442 8.50477 2.0421 8.35304 1.97925C8.20132 1.91641 8.03864 1.88428 7.87442 1.88472H2.35133C1.89364 1.88524 1.45484 2.06729 1.1312 2.39093C0.807563 2.71456 0.625517 3.15336 0.625 3.61105V9.12277C0.625279 9.29304 0.660211 9.46147 0.727669 9.61781C0.795126 9.77415 0.893698 9.91512 1.01738 10.0321L9.23301 17.8525L9.23602 17.8553C9.40923 18.019 9.63866 18.11 9.87699 18.1095C9.88863 18.1095 9.90035 18.1093 9.91215 18.1089C10.0017 18.1056 10.0904 18.0896 10.1755 18.0613C10.3258 18.0112 10.4609 17.9236 10.5679 17.8068L16.4837 11.3762C16.568 11.2849 16.6333 11.1777 16.6758 11.061V11.061ZM9.86328 16.7266L1.87801 9.12547L1.875 9.12265V3.61105C1.87514 3.48477 1.92538 3.3637 2.01467 3.2744C2.10397 3.1851 2.22504 3.13487 2.35133 3.13472H7.87438L15.3627 10.7487L9.86328 16.7266Z" fill="black" fill-opacity="0.26"/>
<path d="M5.46875 4.375C5.06701 4.375 4.67429 4.49413 4.34025 4.71733C4.00621 4.94052 3.74586 5.25776 3.59212 5.62892C3.43838 6.00009 3.39815 6.4085 3.47653 6.80253C3.55491 7.19655 3.74836 7.55848 4.03244 7.84256C4.31652 8.12664 4.67845 8.32009 5.07247 8.39847C5.4665 8.47685 5.87491 8.43662 6.24608 8.28288C6.61724 8.12914 6.93448 7.86879 7.15767 7.53475C7.38087 7.20071 7.5 6.80799 7.5 6.40625C7.49939 5.86772 7.28519 5.35141 6.90439 4.97061C6.52359 4.58981 6.00728 4.37561 5.46875 4.375V4.375ZM5.46875 7.1875C5.31423 7.1875 5.16319 7.14168 5.03471 7.05584C4.90624 6.96999 4.8061 6.84798 4.74697 6.70522C4.68784 6.56247 4.67237 6.40538 4.70251 6.25384C4.73266 6.10229 4.80706 5.96308 4.91632 5.85382C5.02558 5.74456 5.16479 5.67016 5.31634 5.64001C5.46788 5.60987 5.62497 5.62534 5.76772 5.68447C5.91048 5.7436 6.03249 5.84373 6.11834 5.97221C6.20418 6.10069 6.25 6.25173 6.25 6.40625C6.24976 6.61338 6.16738 6.81195 6.02092 6.95841C5.87445 7.10488 5.67588 7.18726 5.46875 7.1875V7.1875Z" fill="black" fill-opacity="0.26"/>
</g>
<defs>
<clipPath id="clip0_63_460">
<rect width="20" height="20" fill="white"/>
</clipPath>
</defs>
</svg>
