<svg width="26" height="26" viewBox="0 0 26 26" fill="none" xmlns="http://www.w3.org/2000/svg">
<g clip-path="url(#clip0_63_135)">
<path d="M23.1977 7.22266H2.80211C2.44201 7.22266 2.09665 7.36571 1.84202 7.62034C1.58739 7.87497 1.44434 8.22033 1.44434 8.58043V21.7538C1.44434 22.1139 1.58739 22.4592 1.84202 22.7139C2.09665 22.9685 2.44201 23.1115 2.80211 23.1115H23.1977C23.5578 23.1115 23.9031 22.9685 24.1578 22.7139C24.4124 22.4592 24.5554 22.1139 24.5554 21.7538V8.58043C24.5554 8.22033 24.4124 7.87497 24.1578 7.62034C23.9031 7.36571 23.5578 7.22266 23.1977 7.22266V7.22266ZM23.111 21.6671H2.88878V8.6671H23.111V21.6671Z" fill="#FDFDFD"/>
<path d="M6.18223 14.0472C6.61076 14.0472 7.02966 13.9202 7.38597 13.6821C7.74227 13.444 8.01998 13.1056 8.18397 12.7097C8.34796 12.3138 8.39087 11.8782 8.30727 11.4579C8.22366 11.0376 8.01731 10.6515 7.7143 10.3485C7.41128 10.0455 7.02522 9.83913 6.60493 9.75553C6.18463 9.67193 5.74899 9.71484 5.35308 9.87883C4.95718 10.0428 4.61879 10.3205 4.38071 10.6768C4.14264 11.0331 4.01556 11.452 4.01556 11.8806C4.01556 12.4552 4.24384 13.0063 4.65017 13.4126C5.05649 13.819 5.6076 14.0472 6.18223 14.0472V14.0472ZM6.18223 10.725C6.41192 10.7193 6.63811 10.7821 6.8319 10.9056C7.02569 11.029 7.17829 11.2074 7.2702 11.418C7.36211 11.6285 7.38915 11.8617 7.34788 12.0878C7.30661 12.3138 7.19889 12.5224 7.0385 12.6869C6.8781 12.8514 6.6723 12.9644 6.44739 13.0113C6.22249 13.0583 5.98868 13.0372 5.77584 12.9506C5.563 12.8641 5.3808 12.7161 5.2525 12.5255C5.1242 12.3349 5.05564 12.1103 5.05556 11.8806C5.05547 11.579 5.17324 11.2894 5.38374 11.0735C5.59424 10.8576 5.88079 10.7325 6.18223 10.725V10.725Z" fill="#FDFDFD"/>
<path d="M5.70539 20.222L10.0387 15.8886L12.3354 18.1853L10.2987 20.222H11.7432L17.1309 14.8342L21.6665 19.3336V17.8892L17.4776 13.722C17.3816 13.6267 17.2518 13.5732 17.1165 13.5732C16.9812 13.5732 16.8514 13.6267 16.7554 13.722L13.0287 17.4486L10.3782 14.8053C10.2821 14.71 10.1523 14.6566 10.0171 14.6566C9.88178 14.6566 9.75199 14.71 9.65595 14.8053L4.27539 20.222H5.70539Z" fill="#FDFDFD"/>
<path d="M21.7678 2.16668C21.7678 1.97513 21.6917 1.79143 21.5562 1.65599C21.4208 1.52055 21.2371 1.44446 21.0456 1.44446H5.15667C4.96513 1.44446 4.78143 1.52055 4.64598 1.65599C4.51054 1.79143 4.43445 1.97513 4.43445 2.16668V2.8889H21.7678V2.16668Z" fill="#FDFDFD"/>
<path d="M23.1978 5.05523C23.1978 4.86368 23.1217 4.67998 22.9863 4.54454C22.8508 4.4091 22.6671 4.33301 22.4756 4.33301H3.69781C3.50626 4.33301 3.32256 4.4091 3.18712 4.54454C3.05168 4.67998 2.97559 4.86368 2.97559 5.05523V5.77745H23.1978V5.05523Z" fill="#FDFDFD"/>
</g>
<defs>
<clipPath id="clip0_63_135">
<rect width="26" height="26" fill="white"/>
</clipPath>
</defs>
</svg>
