<svg width="26" height="26" viewBox="0 0 26 26" fill="none" xmlns="http://www.w3.org/2000/svg">
<g clip-path="url(#clip0_60_584)">
<path d="M23.1977 7.22266H2.80211C2.44201 7.22266 2.09665 7.36571 1.84202 7.62034C1.58739 7.87497 1.44434 8.22033 1.44434 8.58043V21.7538C1.44434 22.1139 1.58739 22.4592 1.84202 22.7139C2.09665 22.9685 2.44201 23.1115 2.80211 23.1115H23.1977C23.5578 23.1115 23.9031 22.9685 24.1578 22.7139C24.4124 22.4592 24.5554 22.1139 24.5554 21.7538V8.58043C24.5554 8.22033 24.4124 7.87497 24.1578 7.62034C23.9031 7.36571 23.5578 7.22266 23.1977 7.22266V7.22266ZM23.111 21.6671H2.88878V8.6671H23.111V21.6671Z" fill="white"/>
<path d="M6.18217 14.0472C6.6107 14.0472 7.0296 13.9201 7.3859 13.6821C7.74221 13.444 8.01992 13.1056 8.18391 12.7097C8.3479 12.3138 8.39081 11.8781 8.3072 11.4578C8.2236 11.0375 8.01725 10.6515 7.71423 10.3485C7.41122 10.0455 7.02516 9.8391 6.60487 9.7555C6.18457 9.6719 5.74893 9.71481 5.35302 9.8788C4.95712 10.0428 4.61873 10.3205 4.38065 10.6768C4.14258 11.0331 4.0155 11.452 4.0155 11.8805C4.0155 12.4552 4.24378 13.0063 4.6501 13.4126C5.05643 13.8189 5.60753 14.0472 6.18217 14.0472V14.0472ZM6.18217 10.725C6.41186 10.7192 6.63805 10.7821 6.83184 10.9055C7.02563 11.029 7.17823 11.2074 7.27014 11.4179C7.36204 11.6285 7.38909 11.8617 7.34782 12.0877C7.30655 12.3138 7.19883 12.5224 7.03844 12.6869C6.87804 12.8514 6.67224 12.9643 6.44733 13.0113C6.22243 13.0583 5.98862 13.0372 5.77578 12.9506C5.56294 12.8641 5.38073 12.716 5.25244 12.5254C5.12414 12.3348 5.05557 12.1103 5.0555 11.8805C5.05541 11.579 5.17318 11.2894 5.38368 11.0735C5.59418 10.8576 5.88073 10.7325 6.18217 10.725V10.725Z" fill="white"/>
<path d="M5.70539 20.222L10.0387 15.8886L12.3354 18.1853L10.2987 20.222H11.7432L17.1309 14.8342L21.6665 19.3336V17.8892L17.4776 13.722C17.3816 13.6267 17.2518 13.5732 17.1165 13.5732C16.9812 13.5732 16.8514 13.6267 16.7554 13.722L13.0287 17.4486L10.3782 14.8053C10.2821 14.71 10.1523 14.6566 10.0171 14.6566C9.88178 14.6566 9.75199 14.71 9.65595 14.8053L4.27539 20.222H5.70539Z" fill="white"/>
<path d="M21.7678 2.16656C21.7678 1.97501 21.6917 1.79131 21.5562 1.65587C21.4208 1.52043 21.2371 1.44434 21.0456 1.44434H5.15667C4.96513 1.44434 4.78143 1.52043 4.64598 1.65587C4.51054 1.79131 4.43445 1.97501 4.43445 2.16656V2.88878H21.7678V2.16656Z" fill="white"/>
<path d="M23.1978 5.05523C23.1978 4.86368 23.1217 4.67998 22.9863 4.54454C22.8508 4.4091 22.6671 4.33301 22.4756 4.33301H3.69781C3.50626 4.33301 3.32256 4.4091 3.18712 4.54454C3.05168 4.67998 2.97559 4.86368 2.97559 5.05523V5.77745H23.1978V5.05523Z" fill="white"/>
</g>
<defs>
<clipPath id="clip0_60_584">
<rect width="26" height="26" fill="white"/>
</clipPath>
</defs>
</svg>
