<svg width="25" height="20" viewBox="0 0 25 20" fill="none" xmlns="http://www.w3.org/2000/svg">
<g clip-path="url(#clip0_36_85)">
<path d="M24.8642 20.0008V20H24.8704V12.665C24.8704 9.07667 23.9098 6.3125 18.6932 6.3125C16.1855 6.3125 14.5026 7.41917 13.8155 8.46833H13.743V6.6475H8.79688V20H13.9471V13.3883C13.9471 11.6475 14.3575 9.96417 17.0383 9.96417C19.6798 9.96417 19.7192 11.9508 19.7192 13.5V20.0008H24.8642Z" fill="#0E0065"/>
<path d="M0.410645 6.64844H5.56712V20.0009H0.410645V6.64844Z" fill="#0E0065"/>
<path d="M2.98653 0C1.33782 0 0 1.07583 0 2.40167C0 3.7275 1.33782 4.82583 2.98653 4.82583C4.63523 4.82583 5.97306 3.7275 5.97306 2.40167C5.97202 1.07583 4.6342 0 2.98653 0V0Z" fill="#0E0065"/>
</g>
<defs>
<clipPath id="clip0_36_85">
<rect width="24.8705" height="20" fill="white"/>
</clipPath>
</defs>
</svg>
