<svg width="26" height="20" viewBox="0 0 26 20" fill="none" xmlns="http://www.w3.org/2000/svg">
<g clip-path="url(#clip0_36_89)">
<path d="M22.816 5.9275C23.8274 5.35 24.6782 4.62917 25.3714 3.79917V3.79833C24.4461 4.12417 23.4616 4.34083 22.4336 4.44583C23.4906 3.93833 24.2979 3.14083 24.6771 2.18C23.6917 2.6525 22.6036 2.98583 21.444 3.1725C20.5082 2.37083 19.1746 1.875 17.7196 1.875C14.8968 1.875 12.6243 3.7175 12.6243 5.97583C12.6243 6.30083 12.6585 6.61333 12.7424 6.91083C8.50409 6.74417 4.75279 5.11083 2.23258 2.62167C1.7932 3.23583 1.53414 3.93833 1.53414 4.69417C1.53414 6.11417 2.44295 7.3725 3.79942 8.10167C2.97973 8.08917 2.17662 7.8975 1.4958 7.59667V7.64167C1.4958 9.63417 3.26263 11.2892 5.58077 11.6708C5.16523 11.7625 4.71341 11.8058 4.24398 11.8058C3.91756 11.8058 3.58802 11.7908 3.27922 11.7358C3.93932 13.3592 5.81497 14.5533 8.04295 14.5925C6.30823 15.6833 4.10512 16.3408 1.72067 16.3408C1.30305 16.3408 0.902013 16.3258 0.500977 16.285C2.76004 17.4558 5.43569 18.125 8.32274 18.125C17.3207 18.125 23.1849 12.0883 22.816 5.9275Z" fill="#0E0065"/>
</g>
<defs>
<clipPath id="clip0_36_89">
<rect width="24.8705" height="20" fill="white" transform="translate(0.500977)"/>
</clipPath>
</defs>
</svg>
