<svg width="26" height="20" viewBox="0 0 26 20" fill="none" xmlns="http://www.w3.org/2000/svg">
<g clip-path="url(#clip0_36_91)">
<path d="M10.7358 14.0984C10.8021 14.0534 10.8695 14.0067 10.9317 13.9576C7.46949 16.6892 1.8239 15.4142 0.50058 11.5617V11.5559C-1.27455 6.31422 6.21042 2.33256 10.9296 5.99922C11.028 6.08339 17.5472 11.6742 17.1327 11.3184H17.1514C18.1244 12.1251 19.5317 12.0367 20.369 11.3317C21.2695 10.5751 21.3016 9.34006 20.4177 8.57089C19.0218 7.27839 16.2809 8.24422 16.5431 10.1601L14.9742 8.87506L13.1545 7.47589C13.5296 6.87672 14.0218 6.35256 14.6384 5.89922C14.5721 5.94506 14.5047 5.99256 14.4426 6.04006C17.9182 3.29839 23.5596 4.60339 24.8736 8.43922V8.44422C26.6529 13.6851 19.1596 17.6667 14.4446 14.0001C14.3482 13.9167 7.83322 8.29089 8.24566 8.64756L8.24151 8.63506C8.22493 8.63506 8.22493 8.62256 8.22493 8.62256C7.20317 7.77506 5.81768 7.90256 5.00732 8.59672C4.10576 9.35339 4.07467 10.5884 4.96068 11.3459C6.2954 12.6084 9.0954 11.6726 8.83219 9.71839C8.93374 9.80256 12.4477 12.7034 12.2239 12.5192C11.655 13.4317 11.0187 13.8509 10.7358 14.0984Z" fill="#0E0065"/>
</g>
<defs>
<clipPath id="clip0_36_91">
<rect width="24.8705" height="20" fill="white" transform="translate(0.251953)"/>
</clipPath>
</defs>
</svg>
