<svg width="47" height="48" viewBox="0 0 47 48" fill="none" xmlns="http://www.w3.org/2000/svg">
<rect width="47" height="48" rx="13" fill="#F15A2B"/>
<path d="M32.8186 31.929C32.3685 31.9382 31.9263 31.8094 31.5515 31.5599C31.2725 31.3777 30.9465 31.2806 30.6132 31.2806C30.28 31.2806 29.9539 31.3777 29.6749 31.5599C29.2963 31.801 28.8568 31.929 28.408 31.929C27.9591 31.929 27.5196 31.801 27.141 31.5599C26.862 31.3775 26.5359 31.2803 26.2026 31.2803C25.8692 31.2803 25.5431 31.3775 25.2641 31.5599C24.8855 31.801 24.446 31.929 23.9972 31.929C23.5483 31.929 23.1088 31.801 22.7302 31.5599C22.4514 31.3776 22.1255 31.2805 21.7924 31.2805C21.4593 31.2805 21.1334 31.3776 20.8546 31.5599C20.5113 31.7881 20.1107 31.9149 19.6987 31.9258L19.676 31.2771C19.9804 31.2699 20.2759 31.1736 20.5261 31.0002C20.9046 30.7592 21.344 30.6312 21.7927 30.6312C22.2415 30.6312 22.6809 30.7592 23.0594 31.0002C23.3383 31.1825 23.6644 31.2796 23.9976 31.2796C24.3309 31.2796 24.657 31.1825 24.9359 31.0002C25.3146 30.7589 25.7542 30.6308 26.2032 30.6308C26.6522 30.6308 27.0918 30.7589 27.4705 31.0002C27.7495 31.1825 28.0755 31.2796 28.4088 31.2796C28.7421 31.2796 29.0681 31.1825 29.3471 31.0002C29.7257 30.7592 30.1652 30.6312 30.614 30.6312C31.0628 30.6312 31.5024 30.7592 31.881 31.0002C32.1606 31.1829 32.4875 31.2803 32.8215 31.2803C33.1556 31.2803 33.4825 31.1829 33.7621 31.0002C34.1365 30.7514 34.5779 30.6228 35.0273 30.6317V31.2804C34.6927 31.2712 34.3639 31.369 34.0887 31.5596C33.7129 31.8095 33.2698 31.9384 32.8186 31.929Z" fill="white"/>
<path d="M15.1785 31.9287C14.7285 31.938 14.2864 31.8092 13.9117 31.5596C13.6366 31.3689 13.3078 31.2709 12.9731 31.2801V30.6314C13.4233 30.6221 13.8655 30.7509 14.2403 31.0005C14.5153 31.1913 14.844 31.2892 15.1785 31.2801C15.5133 31.2893 15.8421 31.1912 16.1171 31.0002C16.4911 30.7507 16.9326 30.622 17.382 30.6314C17.8205 30.6216 18.2518 30.7444 18.6193 30.9839L18.2921 31.5437C18.0236 31.3631 17.7054 31.2709 17.382 31.2801C17.0487 31.2711 16.7212 31.3688 16.4473 31.559C16.0722 31.8093 15.6294 31.9383 15.1785 31.9287Z" fill="white"/>
<path d="M32.8195 29.6581C32.3691 29.6673 31.9266 29.5386 31.5514 29.2891C31.2722 29.1066 30.9459 29.0094 30.6123 29.0094C30.2788 29.0094 29.9525 29.1066 29.6733 29.2891C29.2947 29.53 28.8552 29.658 28.4064 29.658C27.9577 29.658 27.5182 29.53 27.1396 29.2891C26.8608 29.1067 26.5349 29.0096 26.2017 29.0096C25.8685 29.0096 25.5426 29.1067 25.2637 29.2891C24.8852 29.5301 24.4457 29.6582 23.9969 29.6582C23.5481 29.6582 23.1087 29.5301 22.7301 29.2891C22.4513 29.1067 22.1253 29.0096 21.7922 29.0096C21.459 29.0096 21.1331 29.1067 20.8542 29.2891C20.4796 29.5387 20.0375 29.6675 19.5874 29.6581C19.1373 29.6675 18.6952 29.5387 18.3206 29.2891C18.0457 29.0983 17.7171 29.0004 17.3827 29.0095C17.0483 29.0004 16.7198 29.0984 16.445 29.2891C16.071 29.5384 15.6296 29.6672 15.1802 29.6581C14.73 29.6675 14.2878 29.5387 13.913 29.2891C13.6376 29.0979 13.3083 29 12.9731 29.0095V28.3608C13.4232 28.3515 13.8653 28.4804 14.24 28.7299C14.5151 28.9207 14.8439 29.0186 15.1786 29.0095C15.5129 29.0186 15.8414 28.9206 16.1162 28.7299C16.4902 28.4806 16.9316 28.3518 17.381 28.3608C17.8314 28.3513 18.2739 28.4801 18.6488 28.7299C18.9238 28.9207 19.2525 29.0187 19.5871 29.0095C19.9216 29.0187 20.2504 28.9207 20.5254 28.7299C20.9039 28.4888 21.3434 28.3608 21.7922 28.3608C22.241 28.3608 22.6804 28.4888 23.059 28.7299C23.3379 28.9123 23.6639 29.0094 23.9971 29.0094C24.3303 29.0094 24.6563 28.9123 24.9352 28.7299C25.3137 28.4888 25.7532 28.3608 26.202 28.3608C26.6508 28.3608 27.0903 28.4888 27.4688 28.7299C27.7477 28.9123 28.0737 29.0094 28.4069 29.0094C28.7402 29.0094 29.0662 28.9123 29.345 28.7299C29.724 28.4889 30.1637 28.3609 30.6128 28.3609C31.0619 28.3609 31.5017 28.4889 31.8806 28.7299C32.16 28.9123 32.4864 29.0093 32.82 29.0093C33.1536 29.0093 33.48 28.9123 33.7594 28.7299C34.1345 28.4805 34.5769 28.3517 35.0272 28.3608V29.0095C34.6919 29 34.3623 29.098 34.0867 29.2891C33.7118 29.5384 33.2696 29.6671 32.8195 29.6581Z" fill="white"/>
<path d="M32.8187 27.3885C32.3685 27.3977 31.9263 27.2689 31.5515 27.0194C31.2764 26.8287 30.9476 26.7307 30.6129 26.7398C30.3674 26.7314 30.1235 26.7838 29.903 26.8923L29.6169 26.3085C29.9266 26.1567 30.2682 26.0819 30.6129 26.0902C31.0636 26.081 31.5063 26.2102 31.8814 26.4603C32.161 26.6431 32.4878 26.7404 32.8219 26.7404C33.156 26.7404 33.4828 26.6431 33.7625 26.4603C34.1367 26.2114 34.578 26.0826 35.0273 26.0912V26.7398C34.6927 26.7307 34.3639 26.8285 34.0887 27.0191C33.713 27.2689 33.2698 27.3978 32.8187 27.3885Z" fill="white"/>
<path d="M28.4045 27.3884C27.9551 27.3979 27.5136 27.2691 27.1396 27.0197C26.8607 26.8372 26.5345 26.74 26.2012 26.74C25.8679 26.74 25.5417 26.8372 25.2628 27.0197C24.8842 27.2607 24.4446 27.3887 23.9958 27.3887C23.547 27.3887 23.1074 27.2607 22.7288 27.0197C22.4499 26.8373 22.1238 26.7402 21.7906 26.7402C21.4573 26.7402 21.1312 26.8373 20.8523 27.0197C20.4777 27.2688 20.0359 27.3975 19.5861 27.3884C19.1361 27.3977 18.6939 27.2689 18.3193 27.0193C18.0442 26.8286 17.7154 26.7307 17.3807 26.7398C17.0474 26.7308 16.7199 26.8285 16.446 27.0187C16.0713 27.2687 15.6289 27.3978 15.1786 27.3884C14.7285 27.3977 14.2864 27.2689 13.9117 27.0193C13.6366 26.8286 13.3078 26.7307 12.9731 26.7398V26.0911C13.4233 26.0818 13.8655 26.2106 14.2403 26.4602C14.5153 26.651 14.844 26.7489 15.1786 26.7398C15.5133 26.749 15.8421 26.6509 16.1171 26.4599C16.4911 26.2104 16.9326 26.0817 17.382 26.0911C17.8321 26.0818 18.2742 26.2106 18.6488 26.4602C18.9238 26.651 19.2525 26.7489 19.5871 26.7398C19.9217 26.7489 20.2506 26.6509 20.5257 26.4602C20.9043 26.2192 21.3438 26.0911 21.7927 26.0911C22.2415 26.0911 22.681 26.2192 23.0596 26.4602C23.3386 26.6426 23.6646 26.7397 23.9979 26.7397C24.3312 26.7397 24.6572 26.6426 24.9362 26.4602C25.3148 26.219 25.7545 26.0909 26.2035 26.0909C26.6524 26.0909 27.0921 26.219 27.4708 26.4602C27.7565 26.6524 28.0953 26.7501 28.4395 26.7394C28.4646 26.7398 28.4896 26.7385 28.5144 26.7356L28.6007 27.3784C28.5356 27.386 28.4701 27.3893 28.4045 27.3884Z" fill="white"/>
<path d="M32.8195 25.1181C32.3691 25.1273 31.9266 24.9985 31.5514 24.749C31.2722 24.5666 30.9459 24.4694 30.6123 24.4694C30.2788 24.4694 29.9525 24.5666 29.6733 24.749C29.2947 24.99 28.8552 25.118 28.4064 25.118C27.9577 25.118 27.5182 24.99 27.1396 24.749C26.8608 24.5667 26.5349 24.4696 26.2017 24.4696C25.8685 24.4696 25.5426 24.5667 25.2637 24.749C24.8852 24.9901 24.4457 25.1181 23.9969 25.1181C23.5481 25.1181 23.1087 24.9901 22.7301 24.749C22.4513 24.5667 22.1253 24.4696 21.7922 24.4696C21.459 24.4696 21.1331 24.5667 20.8542 24.749C20.4796 24.9986 20.0375 25.1275 19.5874 25.1181C19.1373 25.1275 18.6952 24.9986 18.3206 24.749C18.0457 24.5583 17.7171 24.4603 17.3827 24.4695C17.0483 24.4604 16.7198 24.5583 16.445 24.749C16.071 24.9984 15.6296 25.1272 15.1802 25.1181C14.73 25.1275 14.2878 24.9986 13.913 24.749C13.6376 24.5579 13.3083 24.4599 12.9731 24.4695V23.8208C13.4232 23.8115 13.8653 23.9403 14.24 24.1899C14.5151 24.3806 14.8439 24.4786 15.1786 24.4695C15.5129 24.4785 15.8414 24.3806 16.1162 24.1899C16.4902 23.9406 16.9316 23.8118 17.381 23.8208C17.8314 23.8112 18.2739 23.9401 18.6488 24.1899C18.9238 24.3807 19.2525 24.4786 19.5871 24.4695C19.9216 24.4786 20.2504 24.3807 20.5254 24.1899C20.9039 23.9488 21.3434 23.8207 21.7922 23.8207C22.241 23.8207 22.6804 23.9488 23.059 24.1899C23.3379 24.3723 23.6639 24.4694 23.9971 24.4694C24.3303 24.4694 24.6563 24.3723 24.9352 24.1899C25.3137 23.9488 25.7532 23.8207 26.202 23.8207C26.6508 23.8207 27.0903 23.9488 27.4688 24.1899C27.7477 24.3723 28.0737 24.4694 28.4069 24.4694C28.7402 24.4694 29.0662 24.3723 29.345 24.1899C29.724 23.9489 30.1637 23.8209 30.6128 23.8209C31.0619 23.8209 31.5017 23.9489 31.8806 24.1899C32.16 24.3722 32.4864 24.4693 32.82 24.4693C33.1536 24.4693 33.48 24.3722 33.7594 24.1899C34.1345 23.9405 34.5769 23.8117 35.0272 23.8208V24.4695C34.6919 24.46 34.3623 24.5579 34.0867 24.749C33.7118 24.9983 33.2696 25.1271 32.8195 25.1181Z" fill="white"/>
<path d="M28.1979 24.8428L27.5859 24.6281C27.7436 24.1753 27.808 23.6952 27.7752 23.2168C27.7425 22.7384 27.6134 22.2716 27.3956 21.8444L25.1678 17.482C25.1458 17.4389 25.1337 17.3914 25.1324 17.3431C25.1311 17.2947 25.1407 17.2467 25.1604 17.2025C25.1801 17.1583 25.2094 17.1191 25.2462 17.0877C25.283 17.0563 25.3263 17.0336 25.3731 17.0211L29.8128 15.8373C29.9574 15.7995 30.0813 15.706 30.1575 15.5773C30.2336 15.4486 30.2558 15.2951 30.2193 15.15C30.1828 15.005 30.0905 14.8803 29.9625 14.803C29.8345 14.7257 29.6811 14.702 29.5358 14.7372L24.1624 16.0215C24.0475 16.0487 23.9404 16.1019 23.8494 16.1771C23.7584 16.2523 23.686 16.3474 23.6376 16.4551C23.5893 16.5627 23.5664 16.6801 23.5708 16.7981C23.5751 16.916 23.6065 17.0314 23.6626 17.1353L25.2583 20.0996C25.2987 20.1749 25.3078 20.2632 25.2835 20.3452C25.2592 20.4272 25.2035 20.4963 25.1285 20.5374L23.0691 21.6726L22.7561 21.1043L24.534 20.1242L23.0921 17.4427C22.989 17.2513 22.9312 17.0387 22.9233 16.8214C22.9155 16.6041 22.9577 16.3879 23.0467 16.1895C23.1358 15.9911 23.2692 15.8159 23.4368 15.6773C23.6044 15.5387 23.8016 15.4406 24.0132 15.3904L29.384 14.1064C29.6967 14.0274 30.0279 14.0758 30.3049 14.241C30.5818 14.4063 30.7818 14.6748 30.8608 14.9874C30.9398 15.3001 30.8914 15.6313 30.7262 15.9083C30.5609 16.1852 30.2924 16.3852 29.9798 16.4642L25.9277 17.5442L27.9735 21.549C28.2311 22.0545 28.3838 22.6069 28.4224 23.173C28.4609 23.739 28.3846 24.307 28.1979 24.8428Z" fill="white"/>
<path d="M21.6224 21.7343L17.6812 23.906L17.994 24.4738L21.9353 22.3021L21.6224 21.7343Z" fill="white"/>
<path d="M31.1353 22.6852C30.6542 22.6852 30.1839 22.5425 29.7839 22.2752C29.3839 22.008 29.0721 21.6281 28.888 21.1836C28.7039 20.7391 28.6558 20.25 28.7496 19.7782C28.8435 19.3064 29.0751 18.8729 29.4153 18.5328C29.7555 18.1926 30.1889 17.9609 30.6608 17.8671C31.1326 17.7732 31.6217 17.8214 32.0662 18.0055C32.5106 18.1896 32.8905 18.5013 33.1578 18.9014C33.4251 19.3014 33.5677 19.7717 33.5677 20.2527C33.5671 20.8977 33.3106 21.516 32.8545 21.972C32.3985 22.428 31.7802 22.6845 31.1353 22.6852ZM31.1353 18.469C30.7825 18.469 30.4376 18.5736 30.1443 18.7696C29.851 18.9656 29.6223 19.2442 29.4873 19.5701C29.3523 19.8961 29.317 20.2547 29.3858 20.6007C29.4546 20.9468 29.6245 21.2646 29.874 21.5141C30.1235 21.7635 30.4413 21.9334 30.7873 22.0023C31.1333 22.0711 31.492 22.0358 31.8179 21.9007C32.1439 21.7657 32.4225 21.5371 32.6185 21.2438C32.8145 20.9504 32.9191 20.6055 32.9191 20.2527C32.9185 19.7798 32.7304 19.3265 32.396 18.9921C32.0616 18.6577 31.6082 18.4696 31.1353 18.469Z" fill="white"/>
</svg>
