<svg width="187" height="17" viewBox="0 0 187 17" fill="none" xmlns="http://www.w3.org/2000/svg">
<path fill-rule="evenodd" clip-rule="evenodd" d="M148.379 0.025928C128.028 0.285733 113.609 0.905493 93.5511 2.38234C77.0529 3.59713 66.1188 4.5842 47.4497 6.54412C36.4718 7.69657 32.1721 8.2295 23.4396 9.51991C16.562 10.5363 12.264 11.1315 8.1935 11.6315C2.13539 12.3757 0 12.7209 0 12.9561C0 13.0598 0.20183 13.085 0.375345 13.0031C0.525836 12.932 1.34985 12.8247 6.41074 12.2173C10.6475 11.7087 13.7756 11.2998 20.0689 10.4316C34.1875 8.48397 35.495 8.33631 57.3894 6.21781C88.4325 3.21401 113.642 1.61938 137.838 1.12911C160.814 0.663516 179.733 0.853925 184.587 1.5995C185.389 1.72267 185.393 1.71209 184.479 1.91131C182.354 2.37505 177.589 2.91013 168.174 3.74244C157.422 4.69292 151.589 5.13408 134.104 6.31919C120.79 7.22163 120.469 7.24621 102.885 8.71904C84.4667 10.2618 76.3557 11.0025 65.3406 12.1478C61.4507 12.5522 61.1233 12.5825 56.3357 12.9822C46.8093 13.7775 38.6285 14.6427 30.596 15.7044C27.9808 16.0501 27.5091 16.2059 28.1928 16.498C28.7432 16.7332 33.3115 16.3292 44.6494 15.0426C58.6424 13.4547 60.6126 13.2616 68.6595 12.6889C80.1958 11.8679 89.8122 11.3356 97.8553 11.0729C105.914 10.8096 119.39 10.4744 126.688 10.3556C130.764 10.2893 146.551 10.2371 147.338 10.2874L147.95 10.3265L147.379 10.3916C146.386 10.505 128.778 12.118 121.036 12.8048C118.611 13.0198 115.111 13.3193 113.257 13.4702C107.213 13.9623 94.2473 15.1151 91.961 15.3637C90.5329 15.519 90.0323 15.8347 90.7081 16.1538C91.1685 16.3711 94.2577 16.3899 100.967 16.2163C102.564 16.1749 105.504 16.1068 107.501 16.0649C109.497 16.0231 112.481 15.9343 114.132 15.8677C115.783 15.8011 118.256 15.723 119.629 15.6941C121.002 15.6652 122.731 15.6243 123.473 15.6032L124.821 15.5649L123.629 15.5573C122.067 15.5472 118.393 15.4685 115.279 15.3783C111.628 15.2726 103.63 15.2964 99.93 15.4241C99.5118 15.4385 99.3648 15.4306 99.481 15.3999C99.7078 15.34 109.132 14.5074 113.568 14.1554C126.973 13.0918 149.89 10.9766 151.038 10.6971C152.057 10.4492 151.98 10.0153 150.879 9.79808C148.906 9.40879 130.704 9.48122 114.398 9.94329C113 9.98286 109.733 10.0712 107.138 10.1395C97.3769 10.3964 87.7842 10.7667 84.1649 11.0265C83.9367 11.0428 83.7768 11.0429 83.8096 11.0266C83.9414 10.961 109.199 8.84647 118.996 8.08082C121.212 7.90765 127.629 7.45631 133.257 7.07774C152.818 5.76206 157.335 5.42253 169.16 4.37861C183.761 3.08957 187.728 2.44473 186.895 1.49562C186.202 0.705386 182.23 0.345382 171.182 0.071521C168.539 0.00599427 152.458 -0.0261799 148.379 0.025928Z" fill="white"/>
</svg>
