<svg width="297" height="38" viewBox="0 0 297 38" fill="none" xmlns="http://www.w3.org/2000/svg">
<path fill-rule="evenodd" clip-rule="evenodd" d="M224.154 9.85704C182.64 6.08905 170.755 5.18085 147.637 4.01086C123.679 2.79838 106.501 2.28073 79.2007 1.9486C72.8718 1.87161 66.1015 1.72057 58.1705 1.47929C29.0363 0.592915 23.3532 0.56901 13.8419 1.2921C9.12933 1.65055 5.06701 1.81687 2.80545 1.74441C0.794764 1.67981 0.424514 1.73056 0.392808 2.07493C0.364788 2.37926 3.53555 2.97196 5.29785 2.99169C5.92938 2.99896 7.63904 3.03323 9.09721 3.06827C10.5554 3.1031 13.7693 3.12526 16.2393 3.11744C22.0556 3.09876 24.839 3.18976 34.7831 3.72361C51.5 4.6211 64.1435 5.13447 79.6939 5.54718C85.4247 5.6992 93.0338 5.90113 96.603 5.99581C123.673 6.71373 156.677 8.25864 176.794 9.74977C201.207 11.5589 276.856 18.6756 275.534 19.0384C275.01 19.1823 266.226 19.7538 260.97 19.9861C256.143 20.1995 248.092 20.3963 238.196 20.5427C233.503 20.6124 227.062 20.7141 223.882 20.769C211.937 20.9754 208.005 21.0162 201.229 21.0048C170.018 20.9522 149.341 21.5718 120.47 23.4244C103.309 24.5254 89.1577 26.3558 73.2612 29.5305C64.2233 31.3355 63.3228 31.728 64.0277 33.5557C64.4864 34.7449 68.9076 35.3442 77.9274 35.4395C94.4111 35.6138 109.879 36.0228 124.838 36.6798C134.222 37.092 135.466 37.1275 145.034 37.2572C148.607 37.3058 154.777 37.4732 158.743 37.6295L165.955 37.9137L156.441 36.7648C142.023 35.0236 126.528 33.4588 121.4 33.2261C104.42 32.4556 95.1645 32.2516 80.0103 32.3139C76.3982 32.3288 73.3548 32.299 73.2471 32.2478C72.2078 31.7526 96.7997 28.3813 108.472 27.4189C134.821 25.2461 161.828 24.3748 203.211 24.3621C206.991 24.361 214.584 24.2896 220.084 24.2036C225.585 24.1174 234.256 23.9828 239.353 23.9042C258.971 23.6018 264.831 23.3416 283.789 21.9311C295.93 21.0276 295.996 21.016 296.45 19.6533C296.949 18.1552 296.056 17.3611 293.333 16.8823C290.745 16.4272 241.978 11.4748 224.154 9.85704ZM166.743 37.8378C166.965 37.9075 167.292 37.9391 167.47 37.908C167.648 37.8769 167.467 37.8197 167.067 37.7811C166.667 37.7425 166.522 37.7681 166.743 37.8378Z" fill="white"/>
</svg>
