<svg width="139" height="36" viewBox="0 0 139 36" fill="none" xmlns="http://www.w3.org/2000/svg">
<circle cx="18" cy="18" r="18" fill="#F5F5F5"/>
<g clip-path="url(#clip0_36_214)">
<path d="M24.6545 12.1508C24.2856 12.0429 15.2626 11.1445 12.0937 15.4257C10.6903 17.3222 10.6692 19.9221 12.0234 23.1525C11.6799 23.8655 11.3792 24.6166 11.1341 25.4091C11.0596 25.6499 11.1943 25.9052 11.4349 25.9795C11.4797 25.9934 11.5251 26 11.57 26C11.7645 26 11.945 25.8744 12.0053 25.6787C14.4205 17.8703 22.2694 14.0927 24.6763 13.1383C24.9106 13.0454 25.2236 12.3174 24.6545 12.1508Z" fill="#5747FF"/>
<path d="M13.4719 24.1297C14.7783 24.6778 16.0845 24.9587 17.2992 24.9587C18.391 24.9587 19.4092 24.7342 20.2866 24.279C22.0525 23.3629 23.1315 21.6108 23.4071 19.2113C23.6878 16.7658 24.0373 15.2341 24.3289 14.2971C21.7336 15.4942 16.1688 18.5973 13.4719 24.1297Z" fill="#210DFF"/>
</g>
<circle cx="121" cy="18" r="18" fill="#F5F5F5"/>
<path d="M126.343 13.2421L120.026 19.583C119.953 19.541 119.877 19.5059 119.798 19.478L115.628 18.0663C115.501 18.0347 115.389 17.9619 115.309 17.8593C115.229 17.7568 115.186 17.6305 115.186 17.5005C115.186 17.3704 115.229 17.2441 115.309 17.1416C115.389 17.0391 115.501 16.9663 115.628 16.9346L125.976 13.2538C126.044 13.2308 126.114 13.219 126.186 13.2188C126.239 13.218 126.293 13.2258 126.343 13.2421Z" fill="#2B19F2"/>
<path d="M126.746 14.0238L123.065 24.3838C123.024 24.5045 122.945 24.6086 122.84 24.6803C122.735 24.7519 122.609 24.7871 122.482 24.7804C122.353 24.7863 122.226 24.7494 122.121 24.6756C122.015 24.6017 121.937 24.495 121.898 24.3721L120.51 20.2013C120.482 20.1223 120.447 20.0462 120.405 19.9738L126.758 13.6562C126.793 13.7768 126.789 13.9057 126.746 14.0238Z" fill="#1904FF"/>
<circle cx="72" cy="18" r="18" fill="#F5F5F5"/>
<g clip-path="url(#clip1_36_214)">
<path d="M77.5008 11C77.4231 11 77.3465 11.018 77.277 11.0527L73.4881 12.9477L69.2037 11.0432C69.1967 11.0403 69.1887 11.0397 69.1812 11.0367C69.1619 11.0295 69.1422 11.0235 69.1222 11.0187C69.1023 11.0134 69.0821 11.0092 69.0617 11.0062C69.0211 11.0029 68.9802 11.0029 68.9397 11.0062C68.9193 11.0092 68.8991 11.0134 68.8792 11.0187C68.8592 11.0235 68.8394 11.0295 68.8202 11.0367C68.8127 11.0397 68.8047 11.0402 68.7977 11.0432L64.2977 13.0432C64.1171 13.1234 64.0007 13.3026 64.0007 13.5002V24.5C64.0008 24.6692 64.0864 24.8268 64.2282 24.919C64.3701 25.0114 64.549 25.0257 64.7037 24.957L69.0006 23.047L73.2976 24.957C73.3051 24.96 73.3131 24.957 73.3206 24.9615C73.4416 25.0157 73.5806 25.0126 73.6991 24.953C73.707 24.9496 73.716 24.953 73.724 24.9475L77.724 22.9476C77.8935 22.8629 78.0006 22.6896 78.0005 22.5V11.5002C78.0006 11.2241 77.7769 11.0001 77.5008 11ZM68.5007 22.1751L65.0007 23.7305V13.8252L68.5007 12.2697V22.1751ZM73.0006 23.7305L69.5006 22.1751V12.2697L73.0006 13.8252V23.7305ZM77.0005 22.1911L74.0006 23.691V13.8092L77.0005 12.3092V22.1911Z" fill="#1305AE"/>
</g>
<defs>
<clipPath id="clip0_36_214">
<rect width="14" height="14" fill="white" transform="translate(11 12)"/>
</clipPath>
<clipPath id="clip1_36_214">
<rect width="14" height="14" fill="white" transform="translate(64 11)"/>
</clipPath>
</defs>
</svg>
