<svg width="18" height="18" viewBox="0 0 18 18" fill="none" xmlns="http://www.w3.org/2000/svg">
<g clip-path="url(#clip0_57_387)">
<path d="M7.29548 12.9086V7.14174H6.61111C6.12096 7.40302 5.64725 7.69403 5.19263 8.01315V8.76456C5.59806 8.4867 6.24027 8.09424 6.55273 7.9245H6.5657V12.9086H7.29548ZM8.5799 11.4977C8.63071 12.1897 9.22211 13.0178 10.4211 13.0178C11.7812 13.0178 12.5834 11.8653 12.5834 9.91383C12.5834 7.82287 11.739 7.0293 10.4719 7.0293C9.47078 7.0293 8.52908 7.75584 8.52908 8.98511C8.52908 10.2393 9.41996 10.8988 10.3411 10.8988C11.1477 10.8988 11.6709 10.4923 11.8364 10.0447H11.8655C11.8612 11.4675 11.3671 12.3843 10.4546 12.3843C9.73674 12.3843 9.36482 11.8978 9.31941 11.4977H8.5799ZM11.7726 8.99268C11.7726 9.74517 11.1682 10.2685 10.4925 10.2685C9.84269 10.2685 9.25562 9.85437 9.25562 8.97106C9.25562 8.08126 9.88486 7.66286 10.5184 7.66286C11.2028 7.66286 11.7726 8.09316 11.7726 8.99268Z" fill="white"/>
<path d="M4.11145 0.272461C4.25482 0.272461 4.39232 0.329415 4.4937 0.430793C4.59508 0.532171 4.65203 0.66967 4.65203 0.813041V1.35362H13.3013V0.813041C13.3013 0.66967 13.3583 0.532171 13.4596 0.430793C13.561 0.329415 13.6985 0.272461 13.8419 0.272461C13.9853 0.272461 14.1228 0.329415 14.2241 0.430793C14.3255 0.532171 14.3825 0.66967 14.3825 0.813041V1.35362H15.4636C16.0371 1.35362 16.5871 1.58144 16.9926 1.98695C17.3981 2.39246 17.6259 2.94246 17.6259 3.51594V15.4087C17.6259 15.9822 17.3981 16.5322 16.9926 16.9377C16.5871 17.3432 16.0371 17.571 15.4636 17.571H2.48971C1.91623 17.571 1.36623 17.3432 0.960721 16.9377C0.555208 16.5322 0.327393 15.9822 0.327393 15.4087V3.51594C0.327393 2.94246 0.555208 2.39246 0.960721 1.98695C1.36623 1.58144 1.91623 1.35362 2.48971 1.35362H3.57087V0.813041C3.57087 0.66967 3.62782 0.532171 3.7292 0.430793C3.83058 0.329415 3.96808 0.272461 4.11145 0.272461V0.272461ZM1.40855 4.5971V15.4087C1.40855 15.6954 1.52246 15.9704 1.72522 16.1732C1.92797 16.3759 2.20297 16.4899 2.48971 16.4899H15.4636C15.7504 16.4899 16.0254 16.3759 16.2281 16.1732C16.4309 15.9704 16.5448 15.6954 16.5448 15.4087V4.5971H1.40855Z" fill="white"/>
</g>
<defs>
<clipPath id="clip0_57_387">
<rect width="17.2986" height="17.2986" fill="white" transform="translate(0.327393 0.272461)"/>
</clipPath>
</defs>
</svg>
