<svg width="17" height="17" viewBox="0 0 17 17" fill="none" xmlns="http://www.w3.org/2000/svg">
<path d="M11.9509 14.149L11.4896 10.4557C11.4242 9.93259 11.17 9.45138 10.7747 9.10255C10.3794 8.75372 9.87029 8.56132 9.3431 8.56152H7.75451C7.22757 8.56167 6.71882 8.75423 6.32384 9.10303C5.92886 9.45182 5.67483 9.93284 5.60949 10.4557L5.14748 14.149C5.12212 14.3519 5.14022 14.5578 5.20058 14.7532C5.26094 14.9486 5.36218 15.1289 5.49756 15.2821C5.63295 15.4354 5.79939 15.5581 5.98583 15.6421C6.17227 15.726 6.37445 15.7694 6.57893 15.7693H10.5201C10.7245 15.7693 10.9266 15.7259 11.113 15.6418C11.2993 15.5578 11.4657 15.4351 11.601 15.2819C11.7363 15.1286 11.8375 14.9484 11.8978 14.753C11.9581 14.5577 11.9762 14.3518 11.9509 14.149V14.149Z" stroke="#C6C6C6" stroke-width="1.08116" stroke-linecap="round" stroke-linejoin="round"/>
<path d="M8.54953 5.67815C9.74374 5.67815 10.7118 4.71005 10.7118 3.51583C10.7118 2.32162 9.74374 1.35352 8.54953 1.35352C7.35531 1.35352 6.38721 2.32162 6.38721 3.51583C6.38721 4.71005 7.35531 5.67815 8.54953 5.67815Z" stroke="#C6C6C6" stroke-width="1.08116"/>
<path d="M2.78359 7.84012C3.57973 7.84012 4.22513 7.19472 4.22513 6.39858C4.22513 5.60243 3.57973 4.95703 2.78359 4.95703C1.98744 4.95703 1.34204 5.60243 1.34204 6.39858C1.34204 7.19472 1.98744 7.84012 2.78359 7.84012Z" stroke="#C6C6C6" stroke-width="1.08116"/>
<path d="M14.3158 7.84012C15.112 7.84012 15.7574 7.19472 15.7574 6.39858C15.7574 5.60243 15.112 4.95703 14.3158 4.95703C13.5197 4.95703 12.8743 5.60243 12.8743 6.39858C12.8743 7.19472 13.5197 7.84012 14.3158 7.84012Z" stroke="#C6C6C6" stroke-width="1.08116"/>
<path d="M2.7834 10.0029H2.56284C2.2216 10.0029 1.89141 10.1239 1.63101 10.3444C1.37061 10.565 1.19689 10.8707 1.14076 11.2073L0.900742 12.6489C0.866298 12.8554 0.87726 13.067 0.932866 13.2688C0.988472 13.4707 1.08739 13.658 1.22273 13.8178C1.35807 13.9776 1.5266 14.1059 1.71658 14.194C1.90656 14.282 2.11344 14.3276 2.32283 14.3276H4.94572M14.3158 10.0029H14.5363C14.8776 10.0029 15.2078 10.1239 15.4682 10.3444C15.7286 10.565 15.9023 10.8707 15.9584 11.2073L16.1984 12.6489C16.2329 12.8554 16.2219 13.067 16.1663 13.2688C16.1107 13.4707 16.0118 13.658 15.8764 13.8178C15.7411 13.9776 15.5726 14.1059 15.3826 14.194C15.1926 14.282 14.9857 14.3276 14.7763 14.3276H12.1534" stroke="#C6C6C6" stroke-width="1.08116" stroke-linecap="round" stroke-linejoin="round"/>
</svg>
